<mxfile host="Electron" agent="Mozilla/5.0 (Windows NT 10.0; Win64; x64) AppleWebKit/537.36 (KHTML, like Gecko) draw.io/24.7.17 Chrome/128.0.6613.36 Electron/32.0.1 Safari/537.36" version="24.7.17">
  <diagram name="ページ1" id="kCZ1K9Wbg2DakUKIsbAN">
    <mxGraphModel dx="915" dy="723" grid="1" gridSize="10" guides="1" tooltips="1" connect="1" arrows="1" fold="1" page="1" pageScale="1" pageWidth="827" pageHeight="1169" math="0" shadow="0">
      <root>
        <mxCell id="0" />
        <mxCell id="1" parent="0" />
        <mxCell id="yifaa34ucXqF-eC60_fF-23" value="" style="rounded=0;whiteSpace=wrap;html=1;fillColor=none;strokeColor=none;" parent="1" vertex="1">
          <mxGeometry x="150" y="140" width="520" height="340" as="geometry" />
        </mxCell>
        <mxCell id="Q2xhgx171ck7sQDFLJzE-48" value="" style="verticalLabelPosition=bottom;shadow=0;dashed=0;align=center;html=1;verticalAlign=top;shape=mxgraph.electrical.logic_gates.logic_gate;operation=or;" vertex="1" parent="1">
          <mxGeometry x="230" y="150" width="100" height="60" as="geometry" />
        </mxCell>
        <mxCell id="Q2xhgx171ck7sQDFLJzE-49" value="" style="endArrow=none;html=1;rounded=0;entryX=0;entryY=0.25;entryDx=0;entryDy=0;entryPerimeter=0;" edge="1" parent="1" target="Q2xhgx171ck7sQDFLJzE-48">
          <mxGeometry width="50" height="50" relative="1" as="geometry">
            <mxPoint x="200" y="165" as="sourcePoint" />
            <mxPoint x="200" y="160" as="targetPoint" />
          </mxGeometry>
        </mxCell>
        <mxCell id="Q2xhgx171ck7sQDFLJzE-50" value="" style="endArrow=none;html=1;rounded=0;entryX=0;entryY=0.75;entryDx=0;entryDy=0;entryPerimeter=0;" edge="1" parent="1" target="Q2xhgx171ck7sQDFLJzE-48">
          <mxGeometry width="50" height="50" relative="1" as="geometry">
            <mxPoint x="200" y="195" as="sourcePoint" />
            <mxPoint x="230" y="195" as="targetPoint" />
          </mxGeometry>
        </mxCell>
        <mxCell id="Q2xhgx171ck7sQDFLJzE-51" value="in[0]" style="text;html=1;align=center;verticalAlign=middle;whiteSpace=wrap;rounded=0;" vertex="1" parent="1">
          <mxGeometry x="160" y="150" width="40" height="30" as="geometry" />
        </mxCell>
        <mxCell id="Q2xhgx171ck7sQDFLJzE-52" value="in[1]" style="text;html=1;align=center;verticalAlign=middle;whiteSpace=wrap;rounded=0;" vertex="1" parent="1">
          <mxGeometry x="160" y="180" width="40" height="30" as="geometry" />
        </mxCell>
        <mxCell id="Q2xhgx171ck7sQDFLJzE-53" value="" style="endArrow=none;html=1;rounded=0;exitX=1;exitY=0.5;exitDx=0;exitDy=0;exitPerimeter=0;entryX=0;entryY=0.25;entryDx=0;entryDy=0;entryPerimeter=0;" edge="1" parent="1" target="Q2xhgx171ck7sQDFLJzE-72">
          <mxGeometry width="50" height="50" relative="1" as="geometry">
            <mxPoint x="325" y="180" as="sourcePoint" />
            <mxPoint x="375" y="180" as="targetPoint" />
            <Array as="points">
              <mxPoint x="355" y="180" />
              <mxPoint x="355" y="205" />
            </Array>
          </mxGeometry>
        </mxCell>
        <mxCell id="Q2xhgx171ck7sQDFLJzE-54" value="" style="verticalLabelPosition=bottom;shadow=0;dashed=0;align=center;html=1;verticalAlign=top;shape=mxgraph.electrical.logic_gates.logic_gate;operation=or;" vertex="1" parent="1">
          <mxGeometry x="230" y="233" width="100" height="60" as="geometry" />
        </mxCell>
        <mxCell id="Q2xhgx171ck7sQDFLJzE-55" value="" style="endArrow=none;html=1;rounded=0;entryX=0;entryY=0.25;entryDx=0;entryDy=0;entryPerimeter=0;" edge="1" target="Q2xhgx171ck7sQDFLJzE-54" parent="1">
          <mxGeometry width="50" height="50" relative="1" as="geometry">
            <mxPoint x="200" y="248" as="sourcePoint" />
            <mxPoint x="200" y="243" as="targetPoint" />
          </mxGeometry>
        </mxCell>
        <mxCell id="Q2xhgx171ck7sQDFLJzE-56" value="" style="endArrow=none;html=1;rounded=0;entryX=0;entryY=0.75;entryDx=0;entryDy=0;entryPerimeter=0;" edge="1" target="Q2xhgx171ck7sQDFLJzE-54" parent="1">
          <mxGeometry width="50" height="50" relative="1" as="geometry">
            <mxPoint x="200" y="278" as="sourcePoint" />
            <mxPoint x="230" y="278" as="targetPoint" />
          </mxGeometry>
        </mxCell>
        <mxCell id="Q2xhgx171ck7sQDFLJzE-57" value="in[2]" style="text;html=1;align=center;verticalAlign=middle;whiteSpace=wrap;rounded=0;" vertex="1" parent="1">
          <mxGeometry x="160" y="233" width="40" height="30" as="geometry" />
        </mxCell>
        <mxCell id="Q2xhgx171ck7sQDFLJzE-58" value="in[3]" style="text;html=1;align=center;verticalAlign=middle;whiteSpace=wrap;rounded=0;" vertex="1" parent="1">
          <mxGeometry x="160" y="263" width="40" height="30" as="geometry" />
        </mxCell>
        <mxCell id="Q2xhgx171ck7sQDFLJzE-59" value="" style="endArrow=none;html=1;rounded=0;exitX=1;exitY=0.5;exitDx=0;exitDy=0;exitPerimeter=0;entryX=0;entryY=0.75;entryDx=0;entryDy=0;entryPerimeter=0;" edge="1" parent="1" target="Q2xhgx171ck7sQDFLJzE-72">
          <mxGeometry width="50" height="50" relative="1" as="geometry">
            <mxPoint x="325" y="263.0000000000001" as="sourcePoint" />
            <mxPoint x="375" y="263" as="targetPoint" />
            <Array as="points">
              <mxPoint x="355" y="263" />
              <mxPoint x="355" y="235" />
            </Array>
          </mxGeometry>
        </mxCell>
        <mxCell id="Q2xhgx171ck7sQDFLJzE-60" value="" style="endArrow=none;html=1;rounded=0;entryX=0;entryY=0.25;entryDx=0;entryDy=0;entryPerimeter=0;" edge="1" target="Q2xhgx171ck7sQDFLJzE-66" parent="1">
          <mxGeometry width="50" height="50" relative="1" as="geometry">
            <mxPoint x="200" y="335" as="sourcePoint" />
            <mxPoint x="200" y="330" as="targetPoint" />
          </mxGeometry>
        </mxCell>
        <mxCell id="Q2xhgx171ck7sQDFLJzE-61" value="" style="endArrow=none;html=1;rounded=0;entryX=0;entryY=0.75;entryDx=0;entryDy=0;entryPerimeter=0;" edge="1" target="Q2xhgx171ck7sQDFLJzE-66" parent="1">
          <mxGeometry width="50" height="50" relative="1" as="geometry">
            <mxPoint x="200" y="365" as="sourcePoint" />
            <mxPoint x="230" y="365" as="targetPoint" />
          </mxGeometry>
        </mxCell>
        <mxCell id="Q2xhgx171ck7sQDFLJzE-62" value="" style="endArrow=none;html=1;rounded=0;exitX=1;exitY=0.5;exitDx=0;exitDy=0;exitPerimeter=0;entryX=0;entryY=0.25;entryDx=0;entryDy=0;entryPerimeter=0;" edge="1" parent="1" target="Q2xhgx171ck7sQDFLJzE-73">
          <mxGeometry width="50" height="50" relative="1" as="geometry">
            <mxPoint x="325" y="350" as="sourcePoint" />
            <mxPoint x="375" y="350" as="targetPoint" />
            <Array as="points">
              <mxPoint x="355" y="350" />
              <mxPoint x="355" y="375" />
            </Array>
          </mxGeometry>
        </mxCell>
        <mxCell id="Q2xhgx171ck7sQDFLJzE-63" value="" style="endArrow=none;html=1;rounded=0;entryX=0;entryY=0.25;entryDx=0;entryDy=0;entryPerimeter=0;" edge="1" target="Q2xhgx171ck7sQDFLJzE-69" parent="1">
          <mxGeometry width="50" height="50" relative="1" as="geometry">
            <mxPoint x="200" y="418" as="sourcePoint" />
            <mxPoint x="200" y="413" as="targetPoint" />
          </mxGeometry>
        </mxCell>
        <mxCell id="Q2xhgx171ck7sQDFLJzE-64" value="" style="endArrow=none;html=1;rounded=0;entryX=0;entryY=0.75;entryDx=0;entryDy=0;entryPerimeter=0;" edge="1" target="Q2xhgx171ck7sQDFLJzE-69" parent="1">
          <mxGeometry width="50" height="50" relative="1" as="geometry">
            <mxPoint x="200" y="448" as="sourcePoint" />
            <mxPoint x="230" y="448" as="targetPoint" />
          </mxGeometry>
        </mxCell>
        <mxCell id="Q2xhgx171ck7sQDFLJzE-65" value="" style="endArrow=none;html=1;rounded=0;exitX=1;exitY=0.5;exitDx=0;exitDy=0;exitPerimeter=0;entryX=0;entryY=0.75;entryDx=0;entryDy=0;entryPerimeter=0;" edge="1" parent="1" target="Q2xhgx171ck7sQDFLJzE-73">
          <mxGeometry width="50" height="50" relative="1" as="geometry">
            <mxPoint x="325" y="433" as="sourcePoint" />
            <mxPoint x="375" y="433" as="targetPoint" />
            <Array as="points">
              <mxPoint x="355" y="433" />
              <mxPoint x="355" y="405" />
            </Array>
          </mxGeometry>
        </mxCell>
        <mxCell id="Q2xhgx171ck7sQDFLJzE-66" value="" style="verticalLabelPosition=bottom;shadow=0;dashed=0;align=center;html=1;verticalAlign=top;shape=mxgraph.electrical.logic_gates.logic_gate;operation=or;" vertex="1" parent="1">
          <mxGeometry x="230" y="320" width="100" height="60" as="geometry" />
        </mxCell>
        <mxCell id="Q2xhgx171ck7sQDFLJzE-67" value="in[4]" style="text;html=1;align=center;verticalAlign=middle;whiteSpace=wrap;rounded=0;" vertex="1" parent="1">
          <mxGeometry x="160" y="320" width="40" height="30" as="geometry" />
        </mxCell>
        <mxCell id="Q2xhgx171ck7sQDFLJzE-68" value="in[5]" style="text;html=1;align=center;verticalAlign=middle;whiteSpace=wrap;rounded=0;" vertex="1" parent="1">
          <mxGeometry x="160" y="350" width="40" height="30" as="geometry" />
        </mxCell>
        <mxCell id="Q2xhgx171ck7sQDFLJzE-69" value="" style="verticalLabelPosition=bottom;shadow=0;dashed=0;align=center;html=1;verticalAlign=top;shape=mxgraph.electrical.logic_gates.logic_gate;operation=or;" vertex="1" parent="1">
          <mxGeometry x="230" y="403" width="100" height="60" as="geometry" />
        </mxCell>
        <mxCell id="Q2xhgx171ck7sQDFLJzE-70" value="in[6]" style="text;html=1;align=center;verticalAlign=middle;whiteSpace=wrap;rounded=0;" vertex="1" parent="1">
          <mxGeometry x="160" y="403" width="40" height="30" as="geometry" />
        </mxCell>
        <mxCell id="Q2xhgx171ck7sQDFLJzE-71" value="in[7]" style="text;html=1;align=center;verticalAlign=middle;whiteSpace=wrap;rounded=0;" vertex="1" parent="1">
          <mxGeometry x="160" y="433" width="40" height="30" as="geometry" />
        </mxCell>
        <mxCell id="Q2xhgx171ck7sQDFLJzE-72" value="" style="verticalLabelPosition=bottom;shadow=0;dashed=0;align=center;html=1;verticalAlign=top;shape=mxgraph.electrical.logic_gates.logic_gate;operation=or;" vertex="1" parent="1">
          <mxGeometry x="389" y="190" width="100" height="60" as="geometry" />
        </mxCell>
        <mxCell id="Q2xhgx171ck7sQDFLJzE-73" value="" style="verticalLabelPosition=bottom;shadow=0;dashed=0;align=center;html=1;verticalAlign=top;shape=mxgraph.electrical.logic_gates.logic_gate;operation=or;" vertex="1" parent="1">
          <mxGeometry x="389" y="360" width="100" height="60" as="geometry" />
        </mxCell>
        <mxCell id="Q2xhgx171ck7sQDFLJzE-74" value="" style="verticalLabelPosition=bottom;shadow=0;dashed=0;align=center;html=1;verticalAlign=top;shape=mxgraph.electrical.logic_gates.logic_gate;operation=or;" vertex="1" parent="1">
          <mxGeometry x="538" y="275" width="100" height="60" as="geometry" />
        </mxCell>
        <mxCell id="Q2xhgx171ck7sQDFLJzE-75" value="" style="endArrow=none;html=1;rounded=0;entryX=0;entryY=0.75;entryDx=0;entryDy=0;entryPerimeter=0;exitX=1;exitY=0.5;exitDx=0;exitDy=0;exitPerimeter=0;" edge="1" parent="1" target="Q2xhgx171ck7sQDFLJzE-74">
          <mxGeometry width="50" height="50" relative="1" as="geometry">
            <mxPoint x="486" y="390" as="sourcePoint" />
            <mxPoint x="538" y="360" as="targetPoint" />
            <Array as="points">
              <mxPoint x="510" y="390" />
              <mxPoint x="510" y="320" />
            </Array>
          </mxGeometry>
        </mxCell>
        <mxCell id="Q2xhgx171ck7sQDFLJzE-76" value="" style="endArrow=none;html=1;rounded=0;entryX=1;entryY=0.5;entryDx=0;entryDy=0;entryPerimeter=0;exitX=0;exitY=0.25;exitDx=0;exitDy=0;exitPerimeter=0;" edge="1" parent="1" source="Q2xhgx171ck7sQDFLJzE-74">
          <mxGeometry width="50" height="50" relative="1" as="geometry">
            <mxPoint x="408" y="330" as="sourcePoint" />
            <mxPoint x="486" y="220" as="targetPoint" />
            <Array as="points">
              <mxPoint x="510" y="290" />
              <mxPoint x="510" y="220" />
            </Array>
          </mxGeometry>
        </mxCell>
        <mxCell id="Q2xhgx171ck7sQDFLJzE-77" value="out1" style="text;html=1;align=center;verticalAlign=middle;whiteSpace=wrap;rounded=0;" vertex="1" parent="1">
          <mxGeometry x="310" y="150" width="50" height="30" as="geometry" />
        </mxCell>
        <mxCell id="Q2xhgx171ck7sQDFLJzE-78" value="out2" style="text;html=1;align=center;verticalAlign=middle;whiteSpace=wrap;rounded=0;" vertex="1" parent="1">
          <mxGeometry x="310" y="260" width="50" height="30" as="geometry" />
        </mxCell>
        <mxCell id="Q2xhgx171ck7sQDFLJzE-79" value="out3" style="text;html=1;align=center;verticalAlign=middle;whiteSpace=wrap;rounded=0;" vertex="1" parent="1">
          <mxGeometry x="310" y="320" width="50" height="30" as="geometry" />
        </mxCell>
        <mxCell id="Q2xhgx171ck7sQDFLJzE-80" value="out4" style="text;html=1;align=center;verticalAlign=middle;whiteSpace=wrap;rounded=0;" vertex="1" parent="1">
          <mxGeometry x="310" y="434" width="50" height="30" as="geometry" />
        </mxCell>
        <mxCell id="Q2xhgx171ck7sQDFLJzE-81" value="out5" style="text;html=1;align=center;verticalAlign=middle;whiteSpace=wrap;rounded=0;" vertex="1" parent="1">
          <mxGeometry x="470" y="190" width="50" height="30" as="geometry" />
        </mxCell>
        <mxCell id="Q2xhgx171ck7sQDFLJzE-84" value="out6" style="text;html=1;align=center;verticalAlign=middle;whiteSpace=wrap;rounded=0;" vertex="1" parent="1">
          <mxGeometry x="470" y="390" width="50" height="30" as="geometry" />
        </mxCell>
        <mxCell id="Q2xhgx171ck7sQDFLJzE-85" value="" style="endArrow=none;html=1;rounded=0;exitX=1;exitY=0.5;exitDx=0;exitDy=0;exitPerimeter=0;" edge="1" parent="1" source="Q2xhgx171ck7sQDFLJzE-74">
          <mxGeometry width="50" height="50" relative="1" as="geometry">
            <mxPoint x="640" y="305" as="sourcePoint" />
            <mxPoint x="650" y="305" as="targetPoint" />
          </mxGeometry>
        </mxCell>
        <mxCell id="Q2xhgx171ck7sQDFLJzE-87" value="out" style="text;html=1;align=center;verticalAlign=middle;whiteSpace=wrap;rounded=0;" vertex="1" parent="1">
          <mxGeometry x="620" y="275" width="50" height="30" as="geometry" />
        </mxCell>
      </root>
    </mxGraphModel>
  </diagram>
</mxfile>
